Coordinates
version=1
nRows=6
nColumns=63
inDegrees=yes

Units are S.I. units (second, meters, Newtons, ...)
If the header above contains a line with 'inDegrees', this indicates whether rotational values are in degrees (yes) or radians (no).

endheader
time	pelvis_tilt	pelvis_list	pelvis_rotation	pelvis_tx	pelvis_ty	pelvis_tz	hip_flexion_r	hip_adduction_r	hip_rotation_r	knee_angle_r	knee_angle_r_beta	ankle_angle_r	subtalar_angle_r	mtp_angle_r	hip_flexion_l	hip_adduction_l	hip_rotation_l	knee_angle_l	knee_angle_l_beta	ankle_angle_l	subtalar_angle_l	mtp_angle_l	L5_S1_Flex_Ext	L5_S1_Lat_Bending	L5_S1_axial_rotation	L4_L5_Flex_Ext	L4_L5_Lat_Bending	L4_L5_axial_rotation	L3_L4_Flex_Ext	L3_L4_Lat_Bending	L3_L4_axial_rotation	L2_L3_Flex_Ext	L2_L3_Lat_Bending	L2_L3_axial_rotation	L1_L2_Flex_Ext	L1_L2_Lat_Bending	L1_L2_axial_rotation	L1_T12_Flex_Ext	L1_T12_Lat_Bending	L1_T12_axial_rotation	Abs_r3	Abs_r2	Abs_r1	Abs_t1	Abs_t2	neck_flexion	neck_bending	neck_rotation	arm_flex_r	arm_add_r	arm_rot_r	elbow_flex_r	pro_sup_r	wrist_flex_r	wrist_dev_r	arm_flex_l	arm_add_l	arm_rot_l	elbow_flex_l	pro_sup_l	wrist_flex_l	wrist_dev_l
      3.25000000	      3.48406140	     -0.66119092	    -90.89092032	      0.83817717	      1.09687010	      0.06738812	     13.05756922	     -3.91646336	     -3.02898225	     20.10698376	      0.35093307	    -17.84386725	     -5.62135867	      0.00000000	     13.26020055	      1.93956060	     -6.19793825	     21.20327018	      0.37006688	    -15.24221416	      1.16127665	      0.00000000	     -0.44348019	     -0.31248130	     -0.36140329	     -0.82358706	     -0.41560013	     -0.38399099	     -0.72859360	     -0.75976703	     -0.38399099	     -0.50685351	     -0.75976703	     -0.31622788	     -0.41181570	     -0.63721187	     -0.29364017	     -0.25340458	     -0.48403353	     -0.27105247	     -3.16773464	     -3.53485097	     -2.01001667	      0.00000000	      0.00000000	      0.00000000	      0.00000000	     -0.00000000	    158.65035964	    -32.22522802	     59.93652012	     52.43837172	     60.87898191	      0.00000000	      5.00000014	    -15.21909063	   -139.78460283	   -112.63853590	     46.64969594	     63.45755903	      0.00000000	      5.00000014
      3.26666670	      3.51666027	     -0.79913549	    -90.70393214	      0.83843000	      1.10732912	      0.06939300	     12.52779588	     -4.15812590	     -3.37360884	     19.62663312	      0.34254937	    -18.33414334	     -4.80814677	      0.00000000	     12.73344922	      1.80761784	     -6.88756554	     20.57943641	      0.35917892	    -15.73810498	      2.45897400	      0.00000000	     -0.47777741	     -0.33112446	     -0.35231187	     -0.88728043	     -0.44039554	     -0.37433136	     -0.78494051	     -0.80509602	     -0.37433136	     -0.54605181	     -0.80509602	     -0.30827288	     -0.44366411	     -0.67522901	     -0.28625339	     -0.27300201	     -0.51291180	     -0.26423390	     -3.41271628	     -3.74574616	     -1.95945292	      0.00000000	      0.00000000	      0.00000000	      0.00000000	     -0.00000000	    159.87484919	    -31.45615765	     60.61550783	     50.44964845	     60.60769900	      0.00000000	      5.00000014	    -14.76586765	   -140.80759651	   -112.63401173	     45.54700285	     63.40625076	      0.00000000	      5.00000014
      3.28333330	      3.51313151	     -0.83753697	    -90.49612760	      0.83859439	      1.11343045	      0.07095125	     12.27841667	     -4.31780801	     -3.53340610	     19.49388899	      0.34023255	    -18.57968818	     -4.43785183	      0.00000000	     12.52034864	      1.67844485	     -7.29132113	     20.35317599	      0.35522993	    -16.00405502	      3.08874051	      0.00000000	     -0.50085571	     -0.33490691	     -0.29570267	     -0.93013915	     -0.44542619	     -0.31418409	     -0.82285585	     -0.81429266	     -0.31418409	     -0.57242800	     -0.81429266	     -0.25873984	     -0.46509462	     -0.68294217	     -0.24025842	     -0.28618896	     -0.51877080	     -0.22177700	     -3.57756228	     -3.78853393	     -1.64460954	      0.00000000	      0.00000000	      0.00000000	      0.00000000	     -0.00000000	    161.55973124	    -31.16510335	     63.33346624	     49.43547725	     59.87373818	      0.00000000	      5.00000014	    -14.83616492	   -141.05648352	   -112.59788853	     45.60775217	     63.18598116	      0.00000000	      5.00000014
      3.30000000	      3.49914533	     -0.88324753	    -90.28623013	      0.83852460	      1.11512562	      0.07202343	     12.16176651	     -4.40720117	     -3.49145752	     19.61526116	      0.34235089	    -18.60433964	     -4.38227144	      0.00000000	     12.44560944	      1.56645636	     -7.48341915	     20.39274789	      0.35592059	    -16.05867433	      3.14228292	      0.00000000	     -0.50648711	     -0.34355873	     -0.31643927	     -0.94059721	     -0.45693311	     -0.33621672	     -0.83210767	     -0.83532870	     -0.33621672	     -0.57886412	     -0.83532870	     -0.27688436	     -0.47032393	     -0.70058496	     -0.25710690	     -0.28940673	     -0.53217247	     -0.23732945	     -3.61778678	     -3.88640507	     -1.75994027	      0.00000000	      0.00000000	      0.00000000	      0.00000000	     -0.00000000	    161.67384665	    -31.16157559	     63.33101460	     49.53251244	     59.86018450	      0.00000000	      5.00000014	    -14.94973180	   -141.05937235	   -112.58563503	     45.76768700	     63.18420707	      0.00000000	      5.00000014
      3.31666670	      3.55952634	     -1.07695652	    -90.17094468	      0.83809292	      1.11277519	      0.07298150	     11.98682221	     -4.56620561	     -3.50802010	     19.93323485	      0.34790058	    -18.08839695	     -4.18310897	      0.00000000	     12.24519701	      1.47532334	     -7.90224947	     20.56274963	      0.35888768	    -15.67964527	      3.70924196	      0.00000000	     -0.53442667	     -0.36249273	     -0.29432700	     -0.99248377	     -0.48211533	     -0.31272243	     -0.87800957	     -0.88136482	     -0.31272243	     -0.61079624	     -0.88136482	     -0.25753612	     -0.49626860	     -0.73919517	     -0.23914068	     -0.30537140	     -0.56150124	     -0.22074525	     -3.81735625	     -4.10059026	     -1.63695845	      0.00000000	      0.00000000	      0.00000000	      0.00000000	     -0.00000000	    161.57463037	    -32.07640895	     63.63787236	     51.92600973	     59.78721626	      0.00000000	      5.00000014	    -15.59914976	   -139.99265587	   -113.09529322	     49.37538415	     63.11795970	      0.00000000	      5.00000014
      3.33333330	      3.54610835	     -1.15337791	    -90.01775104	      0.83765021	      1.10585315	      0.07350936	     12.01741473	     -4.59172461	     -3.31079546	     20.37483431	      0.35560794	    -17.51311288	     -4.38909838	      0.00000000	     12.30230638	      1.40226919	     -7.81836082	     20.94298665	      0.36552407	    -15.27526520	      3.38855112	      0.00000000	     -0.53624190	     -0.36191135	     -0.28693057	     -0.99585483	     -0.48134210	     -0.30486373	     -0.88099182	     -0.87995126	     -0.30486373	     -0.61287087	     -0.87995126	     -0.25106425	     -0.49795423	     -0.73800963	     -0.23313108	     -0.30640862	     -0.56060068	     -0.21519792	     -3.83032228	     -4.09401359	     -1.59582173	      0.00000000	      0.00000000	      0.00000000	      0.00000000	     -0.00000000	    161.13946992	    -33.00142127	     63.64577857	     54.60956844	     59.77761375	      0.00000000	      5.00000014	    -16.71532668	   -138.49481660	   -114.08963488	     53.02470633	     63.00905626	      0.00000000	      5.00000014
